<?xml version="1.0" encoding="utf-8"?>
<!-- Generator: Adobe Illustrator 18.0.0, SVG Export Plug-In . SVG Version: 6.00 Build 0)  -->
<!DOCTYPE svg PUBLIC "-//W3C//DTD SVG 1.1//EN" "http://www.w3.org/Graphics/SVG/1.1/DTD/svg11.dtd">
<svg version="1.1" id="Layer_1" xmlns="http://www.w3.org/2000/svg" xmlns:xlink="http://www.w3.org/1999/xlink" x="0px" y="0px"
	 viewBox="0 0 64 64" enable-background="new 0 0 64 64" xml:space="preserve">
<g>
	<g>
		<polygon fill="#FFD833" points="49,23 36.5,23 44.4,1 21.2,1 16.5,33 24.7,33 15,62.7 		"/>
	</g>
	<g>
		<path fill="#2C2C3D" d="M15,63.7c-0.2,0-0.3,0-0.5-0.1c-0.4-0.2-0.6-0.7-0.5-1.2L23.3,34h-6.8c-0.3,0-0.6-0.1-0.8-0.3
			c-0.2-0.2-0.3-0.5-0.2-0.8l4.6-32c0.1-0.5,0.5-0.9,1-0.9h23.2c0.3,0,0.6,0.2,0.8,0.4c0.2,0.3,0.2,0.6,0.1,0.9L37.9,22H49
			c0.4,0,0.7,0.2,0.9,0.6c0.2,0.4,0.1,0.8-0.1,1.1l-34,39.7C15.6,63.6,15.3,63.7,15,63.7z M17.7,32h7c0.3,0,0.6,0.2,0.8,0.4
			c0.2,0.3,0.2,0.6,0.1,0.9l-8.1,25L46.8,24H36.5c-0.3,0-0.6-0.2-0.8-0.4c-0.2-0.3-0.2-0.6-0.1-0.9L42.9,2H22L17.7,32z"/>
	</g>
</g>
</svg>
